<svg width="17" height="17" viewBox="0 0 17 17" fill="none" xmlns="http://www.w3.org/2000/svg">
<g clip-path="url(#clip0_21_132)">
<path d="M12.3959 4.60413H12.4029M4.95835 1.41663H12.0417C13.9977 1.41663 15.5834 3.00228 15.5834 4.95829V12.0416C15.5834 13.9976 13.9977 15.5833 12.0417 15.5833H4.95835C3.00235 15.5833 1.41669 13.9976 1.41669 12.0416V4.95829C1.41669 3.00228 3.00235 1.41663 4.95835 1.41663ZM11.3334 8.05371C11.4208 8.64322 11.3201 9.24528 11.0456 9.77426C10.7711 10.3032 10.3368 10.7322 9.80451 11.0001C9.27218 11.2681 8.66892 11.3613 8.08054 11.2667C7.49215 11.172 6.9486 10.8942 6.5272 10.4728C6.10579 10.0514 5.828 9.50783 5.73332 8.91944C5.63864 8.33106 5.7319 7.7278 5.99983 7.19547C6.26777 6.66315 6.69674 6.22886 7.22572 5.95438C7.7547 5.6799 8.35676 5.57921 8.94627 5.66663C9.54759 5.75579 10.1043 6.036 10.5341 6.46584C10.964 6.89569 11.2442 7.45239 11.3334 8.05371Z" stroke="#D4A437" stroke-linecap="round" stroke-linejoin="round"/>
</g>
<defs>
<clipPath id="clip0_21_132">
<rect width="17" height="17" fill="white"/>
</clipPath>
</defs>
</svg>
